ffmpeg version 6.1.1-3ubuntu5 Copyright (c) 2000-2023 the FFmpeg developers
  built with gcc 13 (Ubuntu 13.2.0-23ubuntu3)
  configuration: --prefix=/usr --extra-version=3ubuntu5 --toolchain=hardened --libdir=/usr/lib/x86_64-linux-gnu --incdir=/usr/include/x86_64-linux-gnu --arch=amd64 --enable-gpl --disable-stripping --disable-omx --enable-gnutls --enable-libaom --enable-libass --enable-libbs2b --enable-libcaca --enable-libcdio --enable-libcodec2 --enable-libdav1d --enable-libflite --enable-libfontconfig --enable-libfreetype --enable-libfribidi --enable-libglslang --enable-libgme --enable-libgsm --enable-libharfbuzz --enable-libmp3lame --enable-libmysofa --enable-libopenjpeg --enable-libopenmpt --enable-libopus --enable-librubberband --enable-libshine --enable-libsnappy --enable-libsoxr --enable-libspeex --enable-libtheora --enable-libtwolame --enable-libvidstab --enable-libvorbis --enable-libvpx --enable-libwebp --enable-libx265 --enable-libxml2 --enable-libxvid --enable-libzimg --enable-openal --enable-opencl --enable-opengl --disable-sndio --enable-libvpl --disable-libmfx --enable-libdc1394 --enable-libdrm --enable-libiec61883 --enable-chromaprint --enable-frei0r --enable-ladspa --enable-libbluray --enable-libjack --enable-libpulse --enable-librabbitmq --enable-librist --enable-libsrt --enable-libssh --enable-libsvtav1 --enable-libx264 --enable-libzmq --enable-libzvbi --enable-lv2 --enable-sdl2 --enable-libplacebo --enable-librav1e --enable-pocketsphinx --enable-librsvg --enable-libjxl --enable-shared
  libavutil      58. 29.100 / 58. 29.100
  libavcodec     60. 31.102 / 60. 31.102
  libavformat    60. 16.100 / 60. 16.100
  libavdevice    60.  3.100 / 60.  3.100
  libavfilter     9. 12.100 /  9. 12.100
  libswscale      7.  5.100 /  7.  5.100
  libswresample   4. 12.100 /  4. 12.100
  libpostproc    57.  3.100 / 57.  3.100
Splitting the commandline.
Reading option '-y' ... matched as option 'y' (overwrite output files) with argument '1'.
Reading option '-loglevel' ... matched as option 'loglevel' (set logging level) with argument 'debug'.
Reading option '-f' ... matched as option 'f' (force format) with argument 'rawvideo'.
Reading option '-pixel_format' ... matched as AVOption 'pixel_format' with argument 'bgr24'.
Reading option '-video_size' ... matched as AVOption 'video_size' with argument '640x480'.
Reading option '-r' ... matched as option 'r' (set frame rate (Hz value, fraction or abbreviation)) with argument '30'.
Reading option '-i' ... matched as output url with argument '-'.
Reading option '-c:v' ... matched as option 'c' (codec name) with argument 'libx264'.
Reading option '-pix_fmt' ... matched as option 'pix_fmt' (set pixel format) with argument 'yuv420p'.
Reading option './../video/output_2024-08-09-13-50-40.mp4' ... matched as output url.
Finished splitting the commandline.
Parsing a group of options: global .
Applying option y (overwrite output files) with argument 1.
Applying option loglevel (set logging level) with argument debug.
Successfully parsed a group of options.
Parsing a group of options: input url -.
Applying option f (force format) with argument rawvideo.
Applying option r (set frame rate (Hz value, fraction or abbreviation)) with argument 30.
Successfully parsed a group of options.
Opening an input file: -.
[rawvideo @ 0x5b2919e974c0] Opening 'fd:' for reading
[fd @ 0x5b2919e97b40] Setting default whitelist 'crypto,data'
[rawvideo @ 0x5b2919e974c0] Before avformat_find_stream_info() pos: 0 bytes read:65536 seeks:0 nb_streams:1
[rawvideo @ 0x5b2919e974c0] All info found
[rawvideo @ 0x5b2919e974c0] After avformat_find_stream_info() pos: 921600 bytes read:921600 seeks:0 frames:1
Input #0, rawvideo, from 'fd:':
  Duration: N/A, start: 0.000000, bitrate: 221184 kb/s
  Stream #0:0, 1, 1/30: Video: rawvideo, 1 reference frame (BGR[24] / 0x18524742), bgr24, 640x480, 0/1, 221184 kb/s, 30 tbr, 30 tbn
Successfully opened the file.
Parsing a group of options: output url ./../video/output_2024-08-09-13-50-40.mp4.
Applying option c:v (codec name) with argument libx264.
Applying option pix_fmt (set pixel format) with argument yuv420p.
Successfully parsed a group of options.
Opening an output file: ./../video/output_2024-08-09-13-50-40.mp4.
[out#0/mp4 @ 0x5b2919ea9340] No explicit maps, mapping streams automatically...
[vost#0:0/libx264 @ 0x5b2919eaa640] Created video stream from input stream 0:0
[file @ 0x5b2919ead080] Setting default whitelist 'file,crypto,data'
Successfully opened the file.
Stream mapping:
  Stream #0:0 -> #0:0 (rawvideo (native) -> h264 (libx264))
[rawvideo @ 0x5b2919ea9780] PACKET SIZE: 921600, STRIDE: 1920
detected 2 logical cores
[graph 0 input from stream 0:0 @ 0x5b2919eae080] Setting 'video_size' to value '640x480'
[graph 0 input from stream 0:0 @ 0x5b2919eae080] Setting 'pix_fmt' to value '3'
[graph 0 input from stream 0:0 @ 0x5b2919eae080] Setting 'time_base' to value '1/30'
[graph 0 input from stream 0:0 @ 0x5b2919eae080] Setting 'pixel_aspect' to value '0/1'
[graph 0 input from stream 0:0 @ 0x5b2919eae080] Setting 'frame_rate' to value '30/1'
[graph 0 input from stream 0:0 @ 0x5b2919eae080] w:640 h:480 pixfmt:bgr24 tb:1/30 fr:30/1 sar:0/1
[format @ 0x5b2919eae600] Setting 'pix_fmts' to value 'yuv420p'
[auto_scale_0 @ 0x5b2919eafa00] w:iw h:ih flags:'' interl:0
[format @ 0x5b2919eae600] auto-inserting filter 'auto_scale_0' between the filter 'Parsed_null_0' and the filter 'format'
[AVFilterGraph @ 0x5b2919ea9140] query_formats: 4 queried, 2 merged, 1 already done, 0 delayed
[auto_scale_0 @ 0x5b2919eafa00] w:640 h:480 fmt:bgr24 sar:0/1 -> w:640 h:480 fmt:yuv420p sar:0/1 flags:0x00000004
[libx264 @ 0x5b2919eaaa00] using mv_range_thread = 72
[libx264 @ 0x5b2919eaaa00] using cpu capabilities: MMX2 SSE2Fast LZCNT SSSE3 SSE4.2
[libx264 @ 0x5b2919eaaa00] profile High, level 3.0, 4:2:0, 8-bit
[libx264 @ 0x5b2919eaaa00] 264 - core 164 r3108 31e19f9 - H.264/MPEG-4 AVC codec - Copyleft 2003-2023 - http://www.videolan.org/x264.html - options: cabac=1 ref=3 deblock=1:0:0 analyse=0x3:0x113 me=hex subme=7 psy=1 psy_rd=1.00:0.00 mixed_ref=1 me_range=16 chroma_me=1 trellis=1 8x8dct=1 cqm=0 deadzone=21,11 fast_pskip=1 chroma_qp_offset=-2 threads=3 lookahead_threads=1 sliced_threads=0 nr=0 decimate=1 interlaced=0 bluray_compat=0 constrained_intra=0 bframes=3 b_pyramid=2 b_adapt=1 b_bias=0 direct=1 weightb=1 open_gop=0 weightp=2 keyint=250 keyint_min=25 scenecut=40 intra_refresh=0 rc_lookahead=40 rc=crf mbtree=1 crf=23.0 qcomp=0.60 qpmin=0 qpmax=69 qpstep=4 ip_ratio=1.40 aq=1:1.00
Output #0, mp4, to './../video/output_2024-08-09-13-50-40.mp4':
  Metadata:
    encoder         : Lavf60.16.100
  Stream #0:0, 0, 1/15360: Video: h264, 1 reference frame (avc1 / 0x31637661), yuv420p(tv, progressive), 640x480 (0x0), 0/1, q=2-31, 30 fps, 15360 tbn
    Metadata:
      encoder         : Lavc60.31.102 libx264
    Side data:
      cpb: bitrate max/min/avg: 0/0/0 buffer size: 0 vbv_delay: N/A
frame=    0 fps=0.0 q=0.0 size=       0kB time=N/A bitrate=N/A speed=N/A    [rawvideo @ 0x5b2919ea9780] PACKET SIZE: 921600, STRIDE: 1920
    Last message repeated 1 times
frame=    0 fps=0.0 q=0.0 size=       0kB time=N/A bitrate=N/A speed=N/A    [rawvideo @ 0x5b2919ea9780] PACKET SIZE: 921600, STRIDE: 1920
    Last message repeated 11 times
frame=    0 fps=0.0 q=0.0 size=       0kB time=N/A bitrate=N/A speed=N/A    [rawvideo @ 0x5b2919ea9780] PACKET SIZE: 921600, STRIDE: 1920
    Last message repeated 13 times
frame=    0 fps=0.0 q=0.0 size=       0kB time=N/A bitrate=N/A speed=N/A    [rawvideo @ 0x5b2919ea9780] PACKET SIZE: 921600, STRIDE: 1920
    Last message repeated 10 times
frame=    0 fps=0.0 q=0.0 size=       0kB time=N/A bitrate=N/A speed=N/A    [rawvideo @ 0x5b2919ea9780] PACKET SIZE: 921600, STRIDE: 1920
    Last message repeated 7 times
[libx264 @ 0x5b2919eaaa00] frame=   0 QP=24.44 NAL=3 Slice:I Poc:0   I:1200 P:0    SKIP:0    size=9528 bytes
[rawvideo @ 0x5b2919ea9780] PACKET SIZE: 921600, STRIDE: 1920
[libx264 @ 0x5b2919eaaa00] frame=   1 QP=20.92 NAL=2 Slice:P Poc:8   I:800  P:377  SKIP:23   size=14239 bytes
[rawvideo @ 0x5b2919ea9780] PACKET SIZE: 921600, STRIDE: 1920
[libx264 @ 0x5b2919eaaa00] frame=   2 QP=22.54 NAL=2 Slice:B Poc:4   I:0    P:78   SKIP:1122 size=139 bytes
[rawvideo @ 0x5b2919ea9780] PACKET SIZE: 921600, STRIDE: 1920
[libx264 @ 0x5b2919eaaa00] frame=   3 QP=24.64 NAL=0 Slice:B Poc:2   I:1    P:36   SKIP:1163 size=79 bytes
[rawvideo @ 0x5b2919ea9780] PACKET SIZE: 921600, STRIDE: 1920
[libx264 @ 0x5b2919eaaa00] frame=   4 QP=26.91 NAL=0 Slice:B Poc:6   I:0    P:41   SKIP:1159 size=72 bytes
frame=    4 fps=1.4 q=29.0 size=       0kB time=00:00:00.06 bitrate=   5.8kbits/s speed=0.0226x    [rawvideo @ 0x5b2919ea9780] PACKET SIZE: 921600, STRIDE: 1920
[libx264 @ 0x5b2919eaaa00] frame=   5 QP=20.56 NAL=2 Slice:P Poc:16  I:8    P:191  SKIP:1001 size=617 bytes
[rawvideo @ 0x5b2919ea9780] PACKET SIZE: 921600, STRIDE: 1920
[libx264 @ 0x5b2919eaaa00] frame=   6 QP=22.48 NAL=2 Slice:B Poc:12  I:0    P:185  SKIP:1015 size=178 bytes
[rawvideo @ 0x5b2919ea9780] PACKET SIZE: 921600, STRIDE: 1920
[libx264 @ 0x5b2919eaaa00] frame=   7 QP=24.01 NAL=0 Slice:B Poc:10  I:0    P:157  SKIP:1043 size=138 bytes
[rawvideo @ 0x5b2919ea9780] PACKET SIZE: 921600, STRIDE: 1920
[libx264 @ 0x5b2919eaaa00] frame=   8 QP=29.00 NAL=0 Slice:B Poc:14  I:0    P:35   SKIP:1165 size=59 bytes
[rawvideo @ 0x5b2919ea9780] PACKET SIZE: 921600, STRIDE: 1920
[libx264 @ 0x5b2919eaaa00] frame=   9 QP=20.33 NAL=2 Slice:P Poc:24  I:2    P:120  SKIP:1078 size=377 bytes
[rawvideo @ 0x5b2919ea9780] PACKET SIZE: 921600, STRIDE: 1920
[libx264 @ 0x5b2919eaaa00] frame=  10 QP=25.01 NAL=2 Slice:B Poc:20  I:0    P:93   SKIP:1107 size=123 bytes
[rawvideo @ 0x5b2919ea9780] PACKET SIZE: 921600, STRIDE: 1920
[libx264 @ 0x5b2919eaaa00] frame=  11 QP=29.00 NAL=0 Slice:B Poc:18  I:0    P:53   SKIP:1147 size=71 bytes
[rawvideo @ 0x5b2919ea9780] PACKET SIZE: 921600, STRIDE: 1920
[libx264 @ 0x5b2919eaaa00] frame=  12 QP=23.98 NAL=0 Slice:B Poc:22  I:0    P:44   SKIP:1156 size=70 bytes
[rawvideo @ 0x5b2919ea9780] PACKET SIZE: 921600, STRIDE: 1920
[libx264 @ 0x5b2919eaaa00] frame=  13 QP=20.37 NAL=2 Slice:P Poc:32  I:2    P:95   SKIP:1103 size=285 bytes
[rawvideo @ 0x5b2919ea9780] PACKET SIZE: 921600, STRIDE: 1920
[libx264 @ 0x5b2919eaaa00] frame=  14 QP=22.55 NAL=2 Slice:B Poc:28  I:0    P:83   SKIP:1117 size=120 bytes
frame=   14 fps=4.1 q=29.0 size=       0kB time=00:00:00.40 bitrate=   1.0kbits/s speed=0.116x    [rawvideo @ 0x5b2919ea9780] PACKET SIZE: 921600, STRIDE: 1920
[libx264 @ 0x5b2919eaaa00] frame=  15 QP=25.50 NAL=0 Slice:B Poc:26  I:0    P:55   SKIP:1145 size=75 bytes
[rawvideo @ 0x5b2919ea9780] PACKET SIZE: 921600, STRIDE: 1920
[libx264 @ 0x5b2919eaaa00] frame=  16 QP=25.11 NAL=0 Slice:B Poc:30  I:0    P:36   SKIP:1164 size=70 bytes
[rawvideo @ 0x5b2919ea9780] PACKET SIZE: 921600, STRIDE: 1920
[libx264 @ 0x5b2919eaaa00] frame=  17 QP=20.11 NAL=2 Slice:P Poc:40  I:2    P:115  SKIP:1083 size=364 bytes
[rawvideo @ 0x5b2919ea9780] PACKET SIZE: 921600, STRIDE: 1920
[libx264 @ 0x5b2919eaaa00] frame=  18 QP=20.81 NAL=2 Slice:B Poc:36  I:0    P:83   SKIP:1117 size=104 bytes
[rawvideo @ 0x5b2919ea9780] PACKET SIZE: 921600, STRIDE: 1920
[libx264 @ 0x5b2919eaaa00] frame=  19 QP=22.43 NAL=0 Slice:B Poc:34  I:0    P:66   SKIP:1134 size=83 bytes
[rawvideo @ 0x5b2919ea9780] PACKET SIZE: 921600, STRIDE: 1920
[libx264 @ 0x5b2919eaaa00] frame=  20 QP=29.00 NAL=0 Slice:B Poc:38  I:0    P:23   SKIP:1177 size=50 bytes
[rawvideo @ 0x5b2919ea9780] PACKET SIZE: 921600, STRIDE: 1920
[libx264 @ 0x5b2919eaaa00] frame=  21 QP=20.36 NAL=2 Slice:P Poc:48  I:1    P:77   SKIP:1122 size=217 bytes
[rawvideo @ 0x5b2919ea9780] PACKET SIZE: 921600, STRIDE: 1920
[libx264 @ 0x5b2919eaaa00] frame=  22 QP=21.86 NAL=2 Slice:B Poc:44  I:0    P:50   SKIP:1150 size=80 bytes
[rawvideo @ 0x5b2919ea9780] PACKET SIZE: 921600, STRIDE: 1920
[libx264 @ 0x5b2919eaaa00] frame=  23 QP=24.17 NAL=0 Slice:B Poc:42  I:0    P:30   SKIP:1170 size=56 bytes
[rawvideo @ 0x5b2919ea9780] PACKET SIZE: 921600, STRIDE: 1920
[libx264 @ 0x5b2919eaaa00] frame=  24 QP=29.00 NAL=0 Slice:B Poc:46  I:0    P:17   SKIP:1183 size=41 bytes
[rawvideo @ 0x5b2919ea9780] PACKET SIZE: 921600, STRIDE: 1920
[libx264 @ 0x5b2919eaaa00] frame=  25 QP=19.97 NAL=2 Slice:P Poc:56  I:4    P:84   SKIP:1112 size=286 bytes
frame=   26 fps=6.6 q=29.0 size=       0kB time=00:00:00.76 bitrate=   0.5kbits/s speed=0.193x    [rawvideo @ 0x5b2919ea9780] PACKET SIZE: 921600, STRIDE: 1920
[libx264 @ 0x5b2919eaaa00] frame=  26 QP=23.09 NAL=2 Slice:B Poc:52  I:0    P:60   SKIP:1140 size=93 bytes
[rawvideo @ 0x5b2919ea9780] PACKET SIZE: 921600, STRIDE: 1920
[libx264 @ 0x5b2919eaaa00] frame=  27 QP=29.00 NAL=0 Slice:B Poc:50  I:0    P:46   SKIP:1154 size=68 bytes
[rawvideo @ 0x5b2919ea9780] PACKET SIZE: 921600, STRIDE: 1920
[libx264 @ 0x5b2919eaaa00] frame=  28 QP=29.00 NAL=0 Slice:B Poc:54  I:0    P:9    SKIP:1191 size=31 bytes
[rawvideo @ 0x5b2919ea9780] PACKET SIZE: 921600, STRIDE: 1920
[libx264 @ 0x5b2919eaaa00] frame=  29 QP=20.21 NAL=2 Slice:P Poc:64  I:2    P:75   SKIP:1123 size=253 bytes
[rawvideo @ 0x5b2919ea9780] PACKET SIZE: 921600, STRIDE: 1920
[libx264 @ 0x5b2919eaaa00] frame=  30 QP=21.87 NAL=2 Slice:B Poc:60  I:0    P:50   SKIP:1150 size=83 bytes
[rawvideo @ 0x5b2919ea9780] PACKET SIZE: 921600, STRIDE: 1920
[libx264 @ 0x5b2919eaaa00] frame=  31 QP=26.08 NAL=0 Slice:B Poc:58  I:0    P:36   SKIP:1164 size=65 bytes
[rawvideo @ 0x5b2919ea9780] PACKET SIZE: 921600, STRIDE: 1920
[libx264 @ 0x5b2919eaaa00] frame=  32 QP=29.00 NAL=0 Slice:B Poc:62  I:0    P:22   SKIP:1178 size=46 bytes
[rawvideo @ 0x5b2919ea9780] PACKET SIZE: 921600, STRIDE: 1920
[libx264 @ 0x5b2919eaaa00] frame=  33 QP=21.15 NAL=2 Slice:P Poc:72  I:3    P:65   SKIP:1132 size=196 bytes
[rawvideo @ 0x5b2919ea9780] PACKET SIZE: 921600, STRIDE: 1920
[libx264 @ 0x5b2919eaaa00] frame=  34 QP=22.48 NAL=2 Slice:B Poc:68  I:0    P:51   SKIP:1149 size=87 bytes
[rawvideo @ 0x5b2919ea9780] PACKET SIZE: 921600, STRIDE: 1920
[libx264 @ 0x5b2919eaaa00] frame=  35 QP=24.60 NAL=0 Slice:B Poc:66  I:0    P:32   SKIP:1168 size=61 bytes
frame=   35 fps=7.8 q=29.0 size=       0kB time=00:00:01.10 bitrate=   0.3kbits/s speed=0.245x    [rawvideo @ 0x5b2919ea9780] PACKET SIZE: 921600, STRIDE: 1920
[libx264 @ 0x5b2919eaaa00] frame=  36 QP=24.09 NAL=0 Slice:B Poc:70  I:0    P:16   SKIP:1184 size=42 bytes
[rawvideo @ 0x5b2919ea9780] PACKET SIZE: 921600, STRIDE: 1920
[libx264 @ 0x5b2919eaaa00] frame=  37 QP=21.00 NAL=2 Slice:P Poc:80  I:7    P:134  SKIP:1059 size=378 bytes
[rawvideo @ 0x5b2919ea9780] PACKET SIZE: 921600, STRIDE: 1920
[libx264 @ 0x5b2919eaaa00] frame=  38 QP=22.87 NAL=2 Slice:B Poc:76  I:0    P:112  SKIP:1088 size=126 bytes
[rawvideo @ 0x5b2919ea9780] PACKET SIZE: 921600, STRIDE: 1920
[libx264 @ 0x5b2919eaaa00] frame=  39 QP=23.21 NAL=0 Slice:B Poc:74  I:0    P:102  SKIP:1098 size=109 bytes
[rawvideo @ 0x5b2919ea9780] PACKET SIZE: 921600, STRIDE: 1920
[libx264 @ 0x5b2919eaaa00] frame=  40 QP=23.66 NAL=0 Slice:B Poc:78  I:0    P:13   SKIP:1187 size=40 bytes
[rawvideo @ 0x5b2919ea9780] PACKET SIZE: 921600, STRIDE: 1920
[libx264 @ 0x5b2919eaaa00] frame=  41 QP=20.73 NAL=2 Slice:P Poc:88  I:7    P:131  SKIP:1062 size=338 bytes
[rawvideo @ 0x5b2919ea9780] PACKET SIZE: 921600, STRIDE: 1920
[libx264 @ 0x5b2919eaaa00] frame=  42 QP=22.14 NAL=2 Slice:B Poc:84  I:0    P:109  SKIP:1091 size=133 bytes
[rawvideo @ 0x5b2919ea9780] PACKET SIZE: 921600, STRIDE: 1920
[libx264 @ 0x5b2919eaaa00] frame=  43 QP=29.00 NAL=0 Slice:B Poc:82  I:0    P:72   SKIP:1128 size=85 bytes
[rawvideo @ 0x5b2919ea9780] PACKET SIZE: 921600, STRIDE: 1920
[libx264 @ 0x5b2919eaaa00] frame=  44 QP=25.29 NAL=0 Slice:B Poc:86  I:0    P:39   SKIP:1161 size=63 bytes
[rawvideo @ 0x5b2919ea9780] PACKET SIZE: 921600, STRIDE: 1920
[libx264 @ 0x5b2919eaaa00] frame=  45 QP=20.23 NAL=2 Slice:P Poc:96  I:2    P:62   SKIP:1136 size=173 bytes
frame=   45 fps=9.0 q=29.0 size=       0kB time=00:00:01.43 bitrate=   0.3kbits/s speed=0.285x    [rawvideo @ 0x5b2919ea9780] PACKET SIZE: 921600, STRIDE: 1920
[libx264 @ 0x5b2919eaaa00] frame=  46 QP=23.10 NAL=2 Slice:B Poc:92  I:0    P:44   SKIP:1156 size=82 bytes
[rawvideo @ 0x5b2919ea9780] PACKET SIZE: 921600, STRIDE: 1920
[libx264 @ 0x5b2919eaaa00] frame=  47 QP=23.06 NAL=0 Slice:B Poc:90  I:0    P:32   SKIP:1168 size=56 bytes
[rawvideo @ 0x5b2919ea9780] PACKET SIZE: 921600, STRIDE: 1920
[libx264 @ 0x5b2919eaaa00] frame=  48 QP=23.06 NAL=0 Slice:B Poc:94  I:0    P:20   SKIP:1180 size=50 bytes
[rawvideo @ 0x5b2919ea9780] PACKET SIZE: 921600, STRIDE: 1920
[libx264 @ 0x5b2919eaaa00] frame=  49 QP=20.38 NAL=2 Slice:P Poc:104 I:1    P:93   SKIP:1106 size=275 bytes
[rawvideo @ 0x5b2919ea9780] PACKET SIZE: 921600, STRIDE: 1920
[libx264 @ 0x5b2919eaaa00] frame=  50 QP=22.82 NAL=2 Slice:B Poc:100 I:0    P:73   SKIP:1127 size=103 bytes
[rawvideo @ 0x5b2919ea9780] PACKET SIZE: 921600, STRIDE: 1920
[libx264 @ 0x5b2919eaaa00] frame=  51 QP=24.24 NAL=0 Slice:B Poc:98  I:0    P:55   SKIP:1145 size=78 bytes
[rawvideo @ 0x5b2919ea9780] PACKET SIZE: 921600, STRIDE: 1920
[libx264 @ 0x5b2919eaaa00] frame=  52 QP=29.00 NAL=0 Slice:B Poc:102 I:0    P:18   SKIP:1182 size=41 bytes
[rawvideo @ 0x5b2919ea9780] PACKET SIZE: 921600, STRIDE: 1920
[libx264 @ 0x5b2919eaaa00] frame=  53 QP=20.37 NAL=2 Slice:P Poc:112 I:0    P:111  SKIP:1089 size=356 bytes
[rawvideo @ 0x5b2919ea9780] PACKET SIZE: 921600, STRIDE: 1920
[libx264 @ 0x5b2919eaaa00] frame=  54 QP=22.57 NAL=2 Slice:B Poc:108 I:0    P:71   SKIP:1129 size=97 bytes
[rawvideo @ 0x5b2919ea9780] PACKET SIZE: 921600, STRIDE: 1920
[libx264 @ 0x5b2919eaaa00] frame=  55 QP=29.00 NAL=0 Slice:B Poc:106 I:0    P:52   SKIP:1148 size=66 bytes
[rawvideo @ 0x5b2919ea9780] PACKET SIZE: 921600, STRIDE: 1920
[libx264 @ 0x5b2919eaaa00] frame=  56 QP=29.00 NAL=0 Slice:B Poc:110 I:0    P:25   SKIP:1175 size=53 bytes
[rawvideo @ 0x5b2919ea9780] PACKET SIZE: 921600, STRIDE: 1920
[libx264 @ 0x5b2919eaaa00] frame=  57 QP=20.82 NAL=2 Slice:P Poc:120 I:2    P:171  SKIP:1027 size=587 bytes
[rawvideo @ 0x5b2919ea9780] PACKET SIZE: 921600, STRIDE: 1920
[libx264 @ 0x5b2919eaaa00] frame=  58 QP=21.33 NAL=2 Slice:B Poc:116 I:0    P:98   SKIP:1102 size=118 bytes
frame=   58 fps= 10 q=29.0 size=       0kB time=00:00:01.86 bitrate=   0.2kbits/s speed=0.335x    [rawvideo @ 0x5b2919ea9780] PACKET SIZE: 921600, STRIDE: 1920
[libx264 @ 0x5b2919eaaa00] frame=  59 QP=23.75 NAL=0 Slice:B Poc:114 I:0    P:93   SKIP:1107 size=94 bytes
[rawvideo @ 0x5b2919ea9780] PACKET SIZE: 921600, STRIDE: 1920
[libx264 @ 0x5b2919eaaa00] frame=  60 QP=25.59 NAL=0 Slice:B Poc:118 I:0    P:31   SKIP:1169 size=61 bytes
[rawvideo @ 0x5b2919ea9780] PACKET SIZE: 921600, STRIDE: 1920
[libx264 @ 0x5b2919eaaa00] frame=  61 QP=20.64 NAL=2 Slice:P Poc:128 I:2    P:121  SKIP:1077 size=410 bytes
[rawvideo @ 0x5b2919ea9780] PACKET SIZE: 921600, STRIDE: 1920
[libx264 @ 0x5b2919eaaa00] frame=  62 QP=24.71 NAL=2 Slice:B Poc:124 I:0    P:83   SKIP:1117 size=106 bytes
[rawvideo @ 0x5b2919ea9780] PACKET SIZE: 921600, STRIDE: 1920
[libx264 @ 0x5b2919eaaa00] frame=  63 QP=29.00 NAL=0 Slice:B Poc:122 I:0    P:62   SKIP:1138 size=80 bytes
[rawvideo @ 0x5b2919ea9780] PACKET SIZE: 921600, STRIDE: 1920
[libx264 @ 0x5b2919eaaa00] frame=  64 QP=29.00 NAL=0 Slice:B Poc:126 I:0    P:32   SKIP:1168 size=58 bytes
[rawvideo @ 0x5b2919ea9780] PACKET SIZE: 921600, STRIDE: 1920
[libx264 @ 0x5b2919eaaa00] frame=  65 QP=20.52 NAL=2 Slice:P Poc:136 I:0    P:114  SKIP:1086 size=296 bytes
[rawvideo @ 0x5b2919ea9780] PACKET SIZE: 921600, STRIDE: 1920
[libx264 @ 0x5b2919eaaa00] frame=  66 QP=23.55 NAL=2 Slice:B Poc:132 I:0    P:80   SKIP:1120 size=104 bytes
[rawvideo @ 0x5b2919ea9780] PACKET SIZE: 921600, STRIDE: 1920
[libx264 @ 0x5b2919eaaa00] frame=  67 QP=29.00 NAL=0 Slice:B Poc:130 I:0    P:33   SKIP:1167 size=56 bytes
[rawvideo @ 0x5b2919ea9780] PACKET SIZE: 921600, STRIDE: 1920
[libx264 @ 0x5b2919eaaa00] frame=  68 QP=29.00 NAL=0 Slice:B Poc:134 I:0    P:17   SKIP:1183 size=42 bytes
[rawvideo @ 0x5b2919ea9780] PACKET SIZE: 921600, STRIDE: 1920
[libx264 @ 0x5b2919eaaa00] frame=  69 QP=20.30 NAL=2 Slice:P Poc:144 I:1    P:100  SKIP:1099 size=319 bytes
[rawvideo @ 0x5b2919ea9780] PACKET SIZE: 921600, STRIDE: 1920
[libx264 @ 0x5b2919eaaa00] frame=  70 QP=21.25 NAL=2 Slice:B Poc:140 I:0    P:65   SKIP:1135 size=102 bytes
frame=   70 fps= 11 q=29.0 size=       0kB time=00:00:02.26 bitrate=   0.2kbits/s speed=0.37x    [rawvideo @ 0x5b2919ea9780] PACKET SIZE: 921600, STRIDE: 1920
[libx264 @ 0x5b2919eaaa00] frame=  71 QP=23.21 NAL=0 Slice:B Poc:138 I:0    P:42   SKIP:1158 size=67 bytes
[rawvideo @ 0x5b2919ea9780] PACKET SIZE: 921600, STRIDE: 1920
[libx264 @ 0x5b2919eaaa00] frame=  72 QP=29.00 NAL=0 Slice:B Poc:142 I:0    P:24   SKIP:1176 size=45 bytes
[rawvideo @ 0x5b2919ea9780] PACKET SIZE: 921600, STRIDE: 1920
[libx264 @ 0x5b2919eaaa00] frame=  73 QP=20.85 NAL=2 Slice:P Poc:152 I:1    P:63   SKIP:1136 size=205 bytes
[rawvideo @ 0x5b2919ea9780] PACKET SIZE: 921600, STRIDE: 1920
[libx264 @ 0x5b2919eaaa00] frame=  74 QP=28.00 NAL=2 Slice:B Poc:148 I:0    P:51   SKIP:1149 size=90 bytes
[rawvideo @ 0x5b2919ea9780] PACKET SIZE: 921600, STRIDE: 1920
[libx264 @ 0x5b2919eaaa00] frame=  75 QP=29.00 NAL=0 Slice:B Poc:146 I:0    P:25   SKIP:1175 size=49 bytes
[rawvideo @ 0x5b2919ea9780] PACKET SIZE: 921600, STRIDE: 1920
[libx264 @ 0x5b2919eaaa00] frame=  76 QP=24.82 NAL=0 Slice:B Poc:150 I:0    P:25   SKIP:1175 size=53 bytes
[rawvideo @ 0x5b2919ea9780] PACKET SIZE: 921600, STRIDE: 1920
[libx264 @ 0x5b2919eaaa00] frame=  77 QP=20.79 NAL=2 Slice:P Poc:160 I:2    P:132  SKIP:1066 size=351 bytes
[rawvideo @ 0x5b2919ea9780] PACKET SIZE: 921600, STRIDE: 1920
[libx264 @ 0x5b2919eaaa00] frame=  78 QP=21.51 NAL=2 Slice:B Poc:156 I:0    P:112  SKIP:1088 size=147 bytes
[rawvideo @ 0x5b2919ea9780] PACKET SIZE: 921600, STRIDE: 1920
[libx264 @ 0x5b2919eaaa00] frame=  79 QP=22.93 NAL=0 Slice:B Poc:154 I:0    P:76   SKIP:1124 size=85 bytes
[rawvideo @ 0x5b2919ea9780] PACKET SIZE: 921600, STRIDE: 1920
[libx264 @ 0x5b2919eaaa00] frame=  80 QP=24.57 NAL=0 Slice:B Poc:158 I:0    P:42   SKIP:1158 size=73 bytes
[rawvideo @ 0x5b2919ea9780] PACKET SIZE: 921600, STRIDE: 1920
[libx264 @ 0x5b2919eaaa00] frame=  81 QP=20.79 NAL=2 Slice:P Poc:168 I:9    P:192  SKIP:999  size=527 bytes
frame=   81 fps= 12 q=29.0 size=       0kB time=00:00:02.63 bitrate=   0.1kbits/s speed=0.397x    [rawvideo @ 0x5b2919ea9780] PACKET SIZE: 921600, STRIDE: 1920
[libx264 @ 0x5b2919eaaa00] frame=  82 QP=22.57 NAL=2 Slice:B Poc:164 I:0    P:165  SKIP:1035 size=171 bytes
[rawvideo @ 0x5b2919ea9780] PACKET SIZE: 921600, STRIDE: 1920
[libx264 @ 0x5b2919eaaa00] frame=  83 QP=23.58 NAL=0 Slice:B Poc:162 I:0    P:126  SKIP:1074 size=141 bytes
[rawvideo @ 0x5b2919ea9780] PACKET SIZE: 921600, STRIDE: 1920
[libx264 @ 0x5b2919eaaa00] frame=  84 QP=22.69 NAL=0 Slice:B Poc:166 I:0    P:92   SKIP:1108 size=112 bytes
[rawvideo @ 0x5b2919ea9780] PACKET SIZE: 921600, STRIDE: 1920
[libx264 @ 0x5b2919eaaa00] frame=  85 QP=20.63 NAL=2 Slice:P Poc:176 I:13   P:211  SKIP:976  size=559 bytes
[rawvideo @ 0x5b2919ea9780] PACKET SIZE: 921600, STRIDE: 1920
[libx264 @ 0x5b2919eaaa00] frame=  86 QP=22.27 NAL=2 Slice:B Poc:172 I:2    P:149  SKIP:1049 size=198 bytes
[rawvideo @ 0x5b2919ea9780] PACKET SIZE: 921600, STRIDE: 1920
[libx264 @ 0x5b2919eaaa00] frame=  87 QP=27.25 NAL=0 Slice:B Poc:170 I:0    P:85   SKIP:1115 size=107 bytes
[rawvideo @ 0x5b2919ea9780] PACKET SIZE: 921600, STRIDE: 1920
[libx264 @ 0x5b2919eaaa00] frame=  88 QP=21.87 NAL=0 Slice:B Poc:174 I:0    P:75   SKIP:1125 size=109 bytes
[rawvideo @ 0x5b2919ea9780] PACKET SIZE: 921600, STRIDE: 1920
[libx264 @ 0x5b2919eaaa00] frame=  89 QP=20.53 NAL=2 Slice:P Poc:184 I:3    P:133  SKIP:1064 size=388 bytes
[rawvideo @ 0x5b2919ea9780] PACKET SIZE: 921600, STRIDE: 1920
[libx264 @ 0x5b2919eaaa00] frame=  90 QP=21.79 NAL=2 Slice:B Poc:180 I:0    P:141  SKIP:1059 size=187 bytes
[rawvideo @ 0x5b2919ea9780] PACKET SIZE: 921600, STRIDE: 1920
[libx264 @ 0x5b2919eaaa00] frame=  91 QP=22.94 NAL=0 Slice:B Poc:178 I:0    P:71   SKIP:1129 size=98 bytes
[rawvideo @ 0x5b2919ea9780] PACKET SIZE: 921600, STRIDE: 1920
[libx264 @ 0x5b2919eaaa00] frame=  92 QP=23.27 NAL=0 Slice:B Poc:182 I:0    P:52   SKIP:1148 size=88 bytes
frame=   92 fps= 13 q=29.0 size=       0kB time=00:00:03.00 bitrate=   0.1kbits/s speed=0.42x    [rawvideo @ 0x5b2919ea9780] PACKET SIZE: 921600, STRIDE: 1920
[libx264 @ 0x5b2919eaaa00] frame=  93 QP=20.61 NAL=2 Slice:P Poc:192 I:1    P:76   SKIP:1123 size=226 bytes
[rawvideo @ 0x5b2919ea9780] PACKET SIZE: 921600, STRIDE: 1920
[libx264 @ 0x5b2919eaaa00] frame=  94 QP=22.31 NAL=2 Slice:B Poc:188 I:0    P:85   SKIP:1115 size=131 bytes
[rawvideo @ 0x5b2919ea9780] PACKET SIZE: 921600, STRIDE: 1920
[libx264 @ 0x5b2919eaaa00] frame=  95 QP=25.07 NAL=0 Slice:B Poc:186 I:0    P:37   SKIP:1163 size=66 bytes
[rawvideo @ 0x5b2919ea9780] PACKET SIZE: 921600, STRIDE: 1920
[libx264 @ 0x5b2919eaaa00] frame=  96 QP=22.69 NAL=0 Slice:B Poc:190 I:0    P:45   SKIP:1155 size=77 bytes
[rawvideo @ 0x5b2919ea9780] PACKET SIZE: 921600, STRIDE: 1920
[libx264 @ 0x5b2919eaaa00] frame=  97 QP=20.03 NAL=2 Slice:P Poc:200 I:1    P:77   SKIP:1122 size=196 bytes
[rawvideo @ 0x5b2919ea9780] PACKET SIZE: 921600, STRIDE: 1920
[libx264 @ 0x5b2919eaaa00] frame=  98 QP=23.33 NAL=2 Slice:B Poc:196 I:0    P:68   SKIP:1132 size=107 bytes
[rawvideo @ 0x5b2919ea9780] PACKET SIZE: 921600, STRIDE: 1920
[libx264 @ 0x5b2919eaaa00] frame=  99 QP=23.43 NAL=0 Slice:B Poc:194 I:0    P:58   SKIP:1142 size=97 bytes
[rawvideo @ 0x5b2919ea9780] PACKET SIZE: 921600, STRIDE: 1920
[libx264 @ 0x5b2919eaaa00] frame= 100 QP=21.73 NAL=0 Slice:B Poc:198 I:0    P:32   SKIP:1168 size=63 bytes
[rawvideo @ 0x5b2919ea9780] PACKET SIZE: 921600, STRIDE: 1920
[libx264 @ 0x5b2919eaaa00] frame= 101 QP=20.12 NAL=2 Slice:P Poc:208 I:2    P:82   SKIP:1116 size=214 bytes
[rawvideo @ 0x5b2919ea9780] PACKET SIZE: 921600, STRIDE: 1920
[libx264 @ 0x5b2919eaaa00] frame= 102 QP=22.18 NAL=2 Slice:B Poc:204 I:0    P:73   SKIP:1127 size=106 bytes
[rawvideo @ 0x5b2919ea9780] PACKET SIZE: 921600, STRIDE: 1920
[libx264 @ 0x5b2919eaaa00] frame= 103 QP=29.00 NAL=0 Slice:B Poc:202 I:0    P:49   SKIP:1151 size=70 bytes
frame=  104 fps= 14 q=29.0 size=       0kB time=00:00:03.36 bitrate=   0.1kbits/s speed=0.439x    [rawvideo @ 0x5b2919ea9780] PACKET SIZE: 921600, STRIDE: 1920
[libx264 @ 0x5b2919eaaa00] frame= 104 QP=23.21 NAL=0 Slice:B Poc:206 I:0    P:23   SKIP:1177 size=53 bytes
[rawvideo @ 0x5b2919ea9780] PACKET SIZE: 921600, STRIDE: 1920
[libx264 @ 0x5b2919eaaa00] frame= 105 QP=20.82 NAL=2 Slice:P Poc:216 I:0    P:71   SKIP:1129 size=204 bytes
[rawvideo @ 0x5b2919ea9780] PACKET SIZE: 921600, STRIDE: 1920
[libx264 @ 0x5b2919eaaa00] frame= 106 QP=22.05 NAL=2 Slice:B Poc:212 I:0    P:58   SKIP:1142 size=97 bytes
[rawvideo @ 0x5b2919ea9780] PACKET SIZE: 921600, STRIDE: 1920
[libx264 @ 0x5b2919eaaa00] frame= 107 QP=22.69 NAL=0 Slice:B Poc:210 I:0    P:37   SKIP:1163 size=63 bytes
[rawvideo @ 0x5b2919ea9780] PACKET SIZE: 921600, STRIDE: 1920
[libx264 @ 0x5b2919eaaa00] frame= 108 QP=22.69 NAL=0 Slice:B Poc:214 I:0    P:36   SKIP:1164 size=67 bytes
[rawvideo @ 0x5b2919ea9780] PACKET SIZE: 921600, STRIDE: 1920
[libx264 @ 0x5b2919eaaa00] frame= 109 QP=20.74 NAL=2 Slice:P Poc:224 I:0    P:79   SKIP:1121 size=227 bytes
[rawvideo @ 0x5b2919ea9780] PACKET SIZE: 921600, STRIDE: 1920
[libx264 @ 0x5b2919eaaa00] frame= 110 QP=21.98 NAL=2 Slice:B Poc:220 I:0    P:77   SKIP:1123 size=117 bytes
[rawvideo @ 0x5b2919ea9780] PACKET SIZE: 921600, STRIDE: 1920
[libx264 @ 0x5b2919eaaa00] frame= 111 QP=29.00 NAL=0 Slice:B Poc:218 I:0    P:58   SKIP:1142 size=78 bytes
[rawvideo @ 0x5b2919ea9780] PACKET SIZE: 921600, STRIDE: 1920
[libx264 @ 0x5b2919eaaa00] frame= 112 QP=23.98 NAL=0 Slice:B Poc:222 I:0    P:21   SKIP:1179 size=51 bytes
[rawvideo @ 0x5b2919ea9780] PACKET SIZE: 921600, STRIDE: 1920
[libx264 @ 0x5b2919eaaa00] frame= 113 QP=20.74 NAL=2 Slice:P Poc:232 I:0    P:76   SKIP:1124 size=218 bytes
[rawvideo @ 0x5b2919ea9780] PACKET SIZE: 921600, STRIDE: 1920
[libx264 @ 0x5b2919eaaa00] frame= 114 QP=22.90 NAL=2 Slice:B Poc:228 I:0    P:50   SKIP:1150 size=79 bytes
frame=  114 fps= 14 q=29.0 size=       0kB time=00:00:03.73 bitrate=   0.1kbits/s speed=0.456x    [rawvideo @ 0x5b2919ea9780] PACKET SIZE: 921600, STRIDE: 1920
[libx264 @ 0x5b2919eaaa00] frame= 115 QP=26.31 NAL=0 Slice:B Poc:226 I:0    P:42   SKIP:1158 size=68 bytes
[rawvideo @ 0x5b2919ea9780] PACKET SIZE: 921600, STRIDE: 1920
[libx264 @ 0x5b2919eaaa00] frame= 116 QP=24.17 NAL=0 Slice:B Poc:230 I:0    P:27   SKIP:1173 size=58 bytes
[rawvideo @ 0x5b2919ea9780] PACKET SIZE: 921600, STRIDE: 1920
[libx264 @ 0x5b2919eaaa00] frame= 117 QP=20.45 NAL=2 Slice:P Poc:240 I:0    P:71   SKIP:1129 size=168 bytes
[rawvideo @ 0x5b2919ea9780] PACKET SIZE: 921600, STRIDE: 1920
[libx264 @ 0x5b2919eaaa00] frame= 118 QP=21.07 NAL=2 Slice:B Poc:236 I:0    P:57   SKIP:1143 size=87 bytes
[rawvideo @ 0x5b2919ea9780] PACKET SIZE: 921600, STRIDE: 1920
[libx264 @ 0x5b2919eaaa00] frame= 119 QP=25.07 NAL=0 Slice:B Poc:234 I:0    P:35   SKIP:1165 size=65 bytes
[rawvideo @ 0x5b2919ea9780] PACKET SIZE: 921600, STRIDE: 1920
[libx264 @ 0x5b2919eaaa00] frame= 120 QP=29.00 NAL=0 Slice:B Poc:238 I:0    P:25   SKIP:1175 size=47 bytes
[rawvideo @ 0x5b2919ea9780] PACKET SIZE: 921600, STRIDE: 1920
[libx264 @ 0x5b2919eaaa00] frame= 121 QP=21.04 NAL=2 Slice:P Poc:248 I:1    P:81   SKIP:1118 size=222 bytes
[rawvideo @ 0x5b2919ea9780] PACKET SIZE: 921600, STRIDE: 1920
[libx264 @ 0x5b2919eaaa00] frame= 122 QP=22.41 NAL=2 Slice:B Poc:244 I:0    P:68   SKIP:1132 size=106 bytes
[rawvideo @ 0x5b2919ea9780] PACKET SIZE: 921600, STRIDE: 1920
[libx264 @ 0x5b2919eaaa00] frame= 123 QP=24.82 NAL=0 Slice:B Poc:242 I:0    P:43   SKIP:1157 size=74 bytes
frame=  123 fps= 14 q=29.0 size=       0kB time=00:00:04.03 bitrate=   0.1kbits/s speed=0.461x    [rawvideo @ 0x5b2919ea9780] PACKET SIZE: 921600, STRIDE: 1920
[libx264 @ 0x5b2919eaaa00] frame= 124 QP=24.55 NAL=0 Slice:B Poc:246 I:0    P:29   SKIP:1171 size=60 bytes
[rawvideo @ 0x5b2919ea9780] PACKET SIZE: 921600, STRIDE: 1920
[libx264 @ 0x5b2919eaaa00] frame= 125 QP=21.47 NAL=2 Slice:P Poc:256 I:1    P:200  SKIP:999  size=813 bytes
[rawvideo @ 0x5b2919ea9780] PACKET SIZE: 921600, STRIDE: 1920
[libx264 @ 0x5b2919eaaa00] frame= 126 QP=20.96 NAL=2 Slice:B Poc:252 I:0    P:142  SKIP:1058 size=171 bytes
[rawvideo @ 0x5b2919ea9780] PACKET SIZE: 921600, STRIDE: 1920
[libx264 @ 0x5b2919eaaa00] frame= 127 QP=29.00 NAL=0 Slice:B Poc:250 I:0    P:79   SKIP:1121 size=84 bytes
[rawvideo @ 0x5b2919ea9780] PACKET SIZE: 921600, STRIDE: 1920
[libx264 @ 0x5b2919eaaa00] frame= 128 QP=23.97 NAL=0 Slice:B Poc:254 I:0    P:61   SKIP:1139 size=87 bytes
[rawvideo @ 0x5b2919ea9780] PACKET SIZE: 921600, STRIDE: 1920
[libx264 @ 0x5b2919eaaa00] frame= 129 QP=21.21 NAL=2 Slice:P Poc:264 I:1    P:197  SKIP:1002 size=576 bytes
[rawvideo @ 0x5b2919ea9780] PACKET SIZE: 921600, STRIDE: 1920
[libx264 @ 0x5b2919eaaa00] frame= 130 QP=21.78 NAL=2 Slice:B Poc:260 I:0    P:144  SKIP:1056 size=167 bytes
[rawvideo @ 0x5b2919ea9780] PACKET SIZE: 921600, STRIDE: 1920
[libx264 @ 0x5b2919eaaa00] frame= 131 QP=24.47 NAL=0 Slice:B Poc:258 I:0    P:87   SKIP:1113 size=107 bytes
[rawvideo @ 0x5b2919ea9780] PACKET SIZE: 921600, STRIDE: 1920
[libx264 @ 0x5b2919eaaa00] frame= 132 QP=22.92 NAL=0 Slice:B Poc:262 I:0    P:57   SKIP:1143 size=91 bytes
[rawvideo @ 0x5b2919ea9780] PACKET SIZE: 921600, STRIDE: 1920
[libx264 @ 0x5b2919eaaa00] frame= 133 QP=20.96 NAL=2 Slice:P Poc:272 I:3    P:180  SKIP:1017 size=587 bytes
[rawvideo @ 0x5b2919ea9780] PACKET SIZE: 921600, STRIDE: 1920
[libx264 @ 0x5b2919eaaa00] frame= 134 QP=23.92 NAL=2 Slice:B Poc:268 I:0    P:126  SKIP:1074 size=142 bytes
frame=  134 fps= 14 q=29.0 size=       0kB time=00:00:04.40 bitrate=   0.1kbits/s speed=0.474x    [rawvideo @ 0x5b2919ea9780] PACKET SIZE: 921600, STRIDE: 1920
[libx264 @ 0x5b2919eaaa00] frame= 135 QP=23.19 NAL=0 Slice:B Poc:266 I:0    P:86   SKIP:1114 size=104 bytes
[rawvideo @ 0x5b2919ea9780] PACKET SIZE: 921600, STRIDE: 1920
[libx264 @ 0x5b2919eaaa00] frame= 136 QP=22.69 NAL=0 Slice:B Poc:270 I:0    P:46   SKIP:1154 size=80 bytes
[rawvideo @ 0x5b2919ea9780] PACKET SIZE: 921600, STRIDE: 1920
[libx264 @ 0x5b2919eaaa00] frame= 137 QP=20.75 NAL=2 Slice:P Poc:280 I:2    P:93   SKIP:1105 size=278 bytes
[rawvideo @ 0x5b2919ea9780] PACKET SIZE: 921600, STRIDE: 1920
[libx264 @ 0x5b2919eaaa00] frame= 138 QP=23.94 NAL=2 Slice:B Poc:276 I:0    P:86   SKIP:1114 size=120 bytes
[rawvideo @ 0x5b2919ea9780] PACKET SIZE: 921600, STRIDE: 1920
[libx264 @ 0x5b2919eaaa00] frame= 139 QP=23.59 NAL=0 Slice:B Poc:274 I:0    P:49   SKIP:1151 size=80 bytes
[rawvideo @ 0x5b2919ea9780] PACKET SIZE: 921600, STRIDE: 1920
[libx264 @ 0x5b2919eaaa00] frame= 140 QP=24.17 NAL=0 Slice:B Poc:278 I:0    P:30   SKIP:1170 size=60 bytes
[rawvideo @ 0x5b2919ea9780] PACKET SIZE: 921600, STRIDE: 1920
[libx264 @ 0x5b2919eaaa00] frame= 141 QP=20.48 NAL=2 Slice:P Poc:288 I:3    P:118  SKIP:1079 size=306 bytes
[rawvideo @ 0x5b2919ea9780] PACKET SIZE: 921600, STRIDE: 1920
[libx264 @ 0x5b2919eaaa00] frame= 142 QP=23.53 NAL=2 Slice:B Poc:284 I:0    P:108  SKIP:1092 size=131 bytes
[rawvideo @ 0x5b2919ea9780] PACKET SIZE: 921600, STRIDE: 1920
[libx264 @ 0x5b2919eaaa00] frame= 143 QP=24.90 NAL=0 Slice:B Poc:282 I:0    P:87   SKIP:1113 size=95 bytes
frame=  143 fps= 15 q=29.0 size=       0kB time=00:00:04.70 bitrate=   0.1kbits/s speed=0.48x    [rawvideo @ 0x5b2919ea9780] PACKET SIZE: 921600, STRIDE: 1920
[libx264 @ 0x5b2919eaaa00] frame= 144 QP=24.29 NAL=0 Slice:B Poc:286 I:0    P:41   SKIP:1159 size=64 bytes
[rawvideo @ 0x5b2919ea9780] PACKET SIZE: 921600, STRIDE: 1920
[libx264 @ 0x5b2919eaaa00] frame= 145 QP=20.63 NAL=2 Slice:P Poc:296 I:3    P:115  SKIP:1082 size=313 bytes
[rawvideo @ 0x5b2919ea9780] PACKET SIZE: 921600, STRIDE: 1920
[libx264 @ 0x5b2919eaaa00] frame= 146 QP=24.16 NAL=2 Slice:B Poc:292 I:0    P:87   SKIP:1113 size=105 bytes
[rawvideo @ 0x5b2919ea9780] PACKET SIZE: 921600, STRIDE: 1920
[libx264 @ 0x5b2919eaaa00] frame= 147 QP=23.71 NAL=0 Slice:B Poc:290 I:0    P:68   SKIP:1132 size=92 bytes
[rawvideo @ 0x5b2919ea9780] PACKET SIZE: 921600, STRIDE: 1920
[libx264 @ 0x5b2919eaaa00] frame= 148 QP=29.00 NAL=0 Slice:B Poc:294 I:0    P:22   SKIP:1178 size=45 bytes
[rawvideo @ 0x5b2919ea9780] PACKET SIZE: 921600, STRIDE: 1920
[libx264 @ 0x5b2919eaaa00] frame= 149 QP=21.01 NAL=2 Slice:P Poc:304 I:3    P:164  SKIP:1033 size=405 bytes
[rawvideo @ 0x5b2919ea9780] PACKET SIZE: 921600, STRIDE: 1920
[libx264 @ 0x5b2919eaaa00] frame= 150 QP=22.72 NAL=2 Slice:B Poc:300 I:0    P:177  SKIP:1023 size=158 bytes
[rawvideo @ 0x5b2919ea9780] PACKET SIZE: 921600, STRIDE: 1920
[libx264 @ 0x5b2919eaaa00] frame= 151 QP=29.00 NAL=0 Slice:B Poc:298 I:0    P:130  SKIP:1070 size=113 bytes
[rawvideo @ 0x5b2919ea9780] PACKET SIZE: 921600, STRIDE: 1920
[libx264 @ 0x5b2919eaaa00] frame= 152 QP=22.65 NAL=0 Slice:B Poc:302 I:0    P:58   SKIP:1142 size=86 bytes
[rawvideo @ 0x5b2919ea9780] PACKET SIZE: 921600, STRIDE: 1920
[libx264 @ 0x5b2919eaaa00] frame= 153 QP=21.20 NAL=2 Slice:P Poc:312 I:1    P:254  SKIP:945  size=652 bytes
frame=  153 fps= 15 q=29.0 size=       0kB time=00:00:05.03 bitrate=   0.1kbits/s speed=0.489x    [rawvideo @ 0x5b2919ea9780] PACKET SIZE: 921600, STRIDE: 1920
[libx264 @ 0x5b2919eaaa00] frame= 154 QP=22.35 NAL=2 Slice:B Poc:308 I:0    P:237  SKIP:963  size=194 bytes
[rawvideo @ 0x5b2919ea9780] PACKET SIZE: 921600, STRIDE: 1920
[libx264 @ 0x5b2919eaaa00] frame= 155 QP=22.47 NAL=0 Slice:B Poc:306 I:0    P:188  SKIP:1012 size=166 bytes
[rawvideo @ 0x5b2919ea9780] PACKET SIZE: 921600, STRIDE: 1920
[libx264 @ 0x5b2919eaaa00] frame= 156 QP=26.49 NAL=0 Slice:B Poc:310 I:0    P:98   SKIP:1102 size=102 bytes
[rawvideo @ 0x5b2919ea9780] PACKET SIZE: 921600, STRIDE: 1920
[libx264 @ 0x5b2919eaaa00] frame= 157 QP=20.24 NAL=2 Slice:P Poc:320 I:1    P:86   SKIP:1113 size=248 bytes
[rawvideo @ 0x5b2919ea9780] PACKET SIZE: 921600, STRIDE: 1920
[libx264 @ 0x5b2919eaaa00] frame= 158 QP=22.19 NAL=2 Slice:B Poc:316 I:0    P:55   SKIP:1145 size=88 bytes
[rawvideo @ 0x5b2919ea9780] PACKET SIZE: 921600, STRIDE: 1920
[libx264 @ 0x5b2919eaaa00] frame= 159 QP=23.67 NAL=0 Slice:B Poc:314 I:0    P:42   SKIP:1158 size=67 bytes
[rawvideo @ 0x5b2919ea9780] PACKET SIZE: 921600, STRIDE: 1920
[libx264 @ 0x5b2919eaaa00] frame= 160 QP=22.67 NAL=0 Slice:B Poc:318 I:0    P:13   SKIP:1187 size=40 bytes
[rawvideo @ 0x5b2919ea9780] PACKET SIZE: 921600, STRIDE: 1920
[libx264 @ 0x5b2919eaaa00] frame= 161 QP=20.88 NAL=2 Slice:P Poc:328 I:0    P:92   SKIP:1108 size=250 bytes
[rawvideo @ 0x5b2919ea9780] PACKET SIZE: 921600, STRIDE: 1920
[libx264 @ 0x5b2919eaaa00] frame= 162 QP=26.94 NAL=2 Slice:B Poc:324 I:0    P:54   SKIP:1146 size=79 bytes
frame=  162 fps= 15 q=29.0 size=       0kB time=00:00:05.33 bitrate=   0.1kbits/s speed=0.494x    [rawvideo @ 0x5b2919ea9780] PACKET SIZE: 921600, STRIDE: 1920
[libx264 @ 0x5b2919eaaa00] frame= 163 QP=29.00 NAL=0 Slice:B Poc:322 I:1    P:29   SKIP:1170 size=54 bytes
[rawvideo @ 0x5b2919ea9780] PACKET SIZE: 921600, STRIDE: 1920
[libx264 @ 0x5b2919eaaa00] frame= 164 QP=29.00 NAL=0 Slice:B Poc:326 I:1    P:23   SKIP:1176 size=51 bytes
[rawvideo @ 0x5b2919ea9780] PACKET SIZE: 921600, STRIDE: 1920
[libx264 @ 0x5b2919eaaa00] frame= 165 QP=20.89 NAL=2 Slice:P Poc:336 I:1    P:184  SKIP:1015 size=403 bytes
[rawvideo @ 0x5b2919ea9780] PACKET SIZE: 921600, STRIDE: 1920
[libx264 @ 0x5b2919eaaa00] frame= 166 QP=22.17 NAL=2 Slice:B Poc:332 I:0    P:139  SKIP:1061 size=151 bytes
[rawvideo @ 0x5b2919ea9780] PACKET SIZE: 921600, STRIDE: 1920
[libx264 @ 0x5b2919eaaa00] frame= 167 QP=22.47 NAL=0 Slice:B Poc:330 I:0    P:112  SKIP:1088 size=115 bytes
[rawvideo @ 0x5b2919ea9780] PACKET SIZE: 921600, STRIDE: 1920
[libx264 @ 0x5b2919eaaa00] frame= 168 QP=23.76 NAL=0 Slice:B Poc:334 I:0    P:52   SKIP:1148 size=82 bytes
[rawvideo @ 0x5b2919ea9780] PACKET SIZE: 921600, STRIDE: 1920
[libx264 @ 0x5b2919eaaa00] frame= 169 QP=20.72 NAL=2 Slice:P Poc:344 I:0    P:118  SKIP:1082 size=300 bytes
[rawvideo @ 0x5b2919ea9780] PACKET SIZE: 921600, STRIDE: 1920
[libx264 @ 0x5b2919eaaa00] frame= 170 QP=22.96 NAL=2 Slice:B Poc:340 I:0    P:83   SKIP:1117 size=119 bytes
[rawvideo @ 0x5b2919ea9780] PACKET SIZE: 921600, STRIDE: 1920
[libx264 @ 0x5b2919eaaa00] frame= 171 QP=22.77 NAL=0 Slice:B Poc:338 I:0    P:55   SKIP:1145 size=83 bytes
[rawvideo @ 0x5b2919ea9780] PACKET SIZE: 921600, STRIDE: 1920
[libx264 @ 0x5b2919eaaa00] frame= 172 QP=22.27 NAL=0 Slice:B Poc:342 I:0    P:31   SKIP:1169 size=63 bytes
frame=  173 fps= 15 q=29.0 size=       0kB time=00:00:05.66 bitrate=   0.1kbits/s speed= 0.5x    [rawvideo @ 0x5b2919ea9780] PACKET SIZE: 921600, STRIDE: 1920
[libx264 @ 0x5b2919eaaa00] frame= 173 QP=20.47 NAL=2 Slice:P Poc:352 I:2    P:92   SKIP:1106 size=258 bytes
[rawvideo @ 0x5b2919ea9780] PACKET SIZE: 921600, STRIDE: 1920
[libx264 @ 0x5b2919eaaa00] frame= 174 QP=22.52 NAL=2 Slice:B Poc:348 I:0    P:71   SKIP:1129 size=97 bytes
[rawvideo @ 0x5b2919ea9780] PACKET SIZE: 921600, STRIDE: 1920
[libx264 @ 0x5b2919eaaa00] frame= 175 QP=23.18 NAL=0 Slice:B Poc:346 I:0    P:50   SKIP:1150 size=74 bytes
[rawvideo @ 0x5b2919ea9780] PACKET SIZE: 921600, STRIDE: 1920
[libx264 @ 0x5b2919eaaa00] frame= 176 QP=23.18 NAL=0 Slice:B Poc:350 I:0    P:27   SKIP:1173 size=53 bytes
[rawvideo @ 0x5b2919ea9780] PACKET SIZE: 921600, STRIDE: 1920
[libx264 @ 0x5b2919eaaa00] frame= 177 QP=20.75 NAL=2 Slice:P Poc:360 I:0    P:107  SKIP:1093 size=252 bytes
[rawvideo @ 0x5b2919ea9780] PACKET SIZE: 921600, STRIDE: 1920
[libx264 @ 0x5b2919eaaa00] frame= 178 QP=24.39 NAL=2 Slice:B Poc:356 I:0    P:54   SKIP:1146 size=81 bytes
[rawvideo @ 0x5b2919ea9780] PACKET SIZE: 921600, STRIDE: 1920
[libx264 @ 0x5b2919eaaa00] frame= 179 QP=23.90 NAL=0 Slice:B Poc:354 I:0    P:40   SKIP:1160 size=61 bytes
[vist#0:0/rawvideo @ 0x5b2919ea9600] Decoder thread received EOF packet
[vist#0:0/rawvideo @ 0x5b2919ea9600] Decoder returned EOF, finishing
[vist#0:0/rawvideo @ 0x5b2919ea9600] Terminating decoder thread
[libx264 @ 0x5b2919eaaa00] frame= 180 QP=24.55 NAL=0 Slice:B Poc:358 I:0    P:15   SKIP:1185 size=42 bytes
[in#0/rawvideo @ 0x5b2919e973c0] EOF while reading input
[in#0/rawvideo @ 0x5b2919e973c0] Terminating demuxer thread
[libx264 @ 0x5b2919eaaa00] frame= 181 QP=20.13 NAL=2 Slice:P Poc:368 I:2    P:156  SKIP:1042 size=367 bytes
[libx264 @ 0x5b2919eaaa00] frame= 182 QP=23.53 NAL=2 Slice:B Poc:364 I:0    P:123  SKIP:1077 size=148 bytes
[libx264 @ 0x5b2919eaaa00] frame= 183 QP=23.18 NAL=0 Slice:B Poc:362 I:0    P:71   SKIP:1129 size=90 bytes
[libx264 @ 0x5b2919eaaa00] frame= 184 QP=29.00 NAL=0 Slice:B Poc:366 I:0    P:72   SKIP:1128 size=95 bytes
[libx264 @ 0x5b2919eaaa00] frame= 185 QP=20.17 NAL=2 Slice:P Poc:376 I:0    P:76   SKIP:1124 size=223 bytes
[libx264 @ 0x5b2919eaaa00] frame= 186 QP=23.40 NAL=2 Slice:B Poc:372 I:0    P:68   SKIP:1132 size=108 bytes
[libx264 @ 0x5b2919eaaa00] frame= 187 QP=23.18 NAL=0 Slice:B Poc:370 I:0    P:34   SKIP:1166 size=65 bytes
[libx264 @ 0x5b2919eaaa00] frame= 188 QP=22.62 NAL=0 Slice:B Poc:374 I:0    P:21   SKIP:1179 size=50 bytes
[libx264 @ 0x5b2919eaaa00] frame= 189 QP=20.76 NAL=2 Slice:P Poc:384 I:2    P:143  SKIP:1055 size=333 bytes
[libx264 @ 0x5b2919eaaa00] frame= 190 QP=24.34 NAL=2 Slice:B Poc:380 I:0    P:140  SKIP:1060 size=128 bytes
[libx264 @ 0x5b2919eaaa00] frame= 191 QP=24.19 NAL=0 Slice:B Poc:378 I:0    P:99   SKIP:1101 size=103 bytes
[libx264 @ 0x5b2919eaaa00] frame= 192 QP=25.47 NAL=0 Slice:B Poc:382 I:0    P:75   SKIP:1125 size=92 bytes
[libx264 @ 0x5b2919eaaa00] frame= 193 QP=20.49 NAL=2 Slice:P Poc:392 I:1    P:81   SKIP:1118 size=212 bytes
[libx264 @ 0x5b2919eaaa00] frame= 194 QP=22.09 NAL=2 Slice:B Poc:388 I:0    P:58   SKIP:1142 size=97 bytes
[libx264 @ 0x5b2919eaaa00] frame= 195 QP=29.00 NAL=0 Slice:B Poc:386 I:0    P:46   SKIP:1154 size=65 bytes
[libx264 @ 0x5b2919eaaa00] frame= 196 QP=29.00 NAL=0 Slice:B Poc:390 I:0    P:25   SKIP:1175 size=50 bytes
[libx264 @ 0x5b2919eaaa00] frame= 197 QP=20.31 NAL=2 Slice:P Poc:400 I:0    P:69   SKIP:1131 size=192 bytes
[libx264 @ 0x5b2919eaaa00] frame= 198 QP=24.86 NAL=2 Slice:B Poc:396 I:0    P:44   SKIP:1156 size=74 bytes
[libx264 @ 0x5b2919eaaa00] frame= 199 QP=29.00 NAL=0 Slice:B Poc:394 I:0    P:36   SKIP:1164 size=56 bytes
[libx264 @ 0x5b2919eaaa00] frame= 200 QP=29.00 NAL=0 Slice:B Poc:398 I:0    P:21   SKIP:1179 size=43 bytes
[libx264 @ 0x5b2919eaaa00] frame= 201 QP=20.15 NAL=2 Slice:P Poc:408 I:1    P:109  SKIP:1090 size=251 bytes
[libx264 @ 0x5b2919eaaa00] frame= 202 QP=20.60 NAL=2 Slice:B Poc:404 I:0    P:97   SKIP:1103 size=112 bytes
[libx264 @ 0x5b2919eaaa00] frame= 203 QP=26.31 NAL=0 Slice:B Poc:402 I:0    P:52   SKIP:1148 size=75 bytes
[libx264 @ 0x5b2919eaaa00] frame= 204 QP=26.77 NAL=0 Slice:B Poc:406 I:0    P:46   SKIP:1154 size=77 bytes
[libx264 @ 0x5b2919eaaa00] frame= 205 QP=20.67 NAL=2 Slice:P Poc:416 I:0    P:43   SKIP:1157 size=117 bytes
[libx264 @ 0x5b2919eaaa00] frame= 206 QP=24.35 NAL=2 Slice:B Poc:412 I:0    P:44   SKIP:1156 size=78 bytes
[libx264 @ 0x5b2919eaaa00] frame= 207 QP=23.66 NAL=0 Slice:B Poc:410 I:0    P:27   SKIP:1173 size=55 bytes
[libx264 @ 0x5b2919eaaa00] frame= 208 QP=24.82 NAL=0 Slice:B Poc:414 I:0    P:19   SKIP:1181 size=44 bytes
[libx264 @ 0x5b2919eaaa00] frame= 209 QP=20.88 NAL=2 Slice:P Poc:424 I:1    P:87   SKIP:1112 size=187 bytes
[libx264 @ 0x5b2919eaaa00] frame= 210 QP=27.00 NAL=2 Slice:B Poc:420 I:0    P:76   SKIP:1124 size=90 bytes
[libx264 @ 0x5b2919eaaa00] frame= 211 QP=29.00 NAL=0 Slice:B Poc:418 I:0    P:46   SKIP:1154 size=62 bytes
[libx264 @ 0x5b2919eaaa00] frame= 212 QP=29.00 NAL=0 Slice:B Poc:422 I:0    P:48   SKIP:1152 size=63 bytes
[libx264 @ 0x5b2919eaaa00] frame= 213 QP=21.07 NAL=2 Slice:P Poc:432 I:1    P:81   SKIP:1118 size=193 bytes
[libx264 @ 0x5b2919eaaa00] frame= 214 QP=28.00 NAL=2 Slice:B Poc:428 I:0    P:64   SKIP:1136 size=85 bytes
[libx264 @ 0x5b2919eaaa00] frame= 215 QP=29.00 NAL=0 Slice:B Poc:426 I:0    P:51   SKIP:1149 size=69 bytes
[libx264 @ 0x5b2919eaaa00] frame= 216 QP=24.83 NAL=0 Slice:B Poc:430 I:0    P:39   SKIP:1161 size=60 bytes
[libx264 @ 0x5b2919eaaa00] frame= 217 QP=20.21 NAL=2 Slice:P Poc:440 I:0    P:64   SKIP:1136 size=153 bytes
[libx264 @ 0x5b2919eaaa00] frame= 218 QP=25.68 NAL=2 Slice:B Poc:436 I:0    P:46   SKIP:1154 size=80 bytes
[libx264 @ 0x5b2919eaaa00] frame= 219 QP=29.00 NAL=0 Slice:B Poc:434 I:0    P:33   SKIP:1167 size=54 bytes
[libx264 @ 0x5b2919eaaa00] frame= 220 QP=29.00 NAL=0 Slice:B Poc:438 I:0    P:17   SKIP:1183 size=38 bytes
[libx264 @ 0x5b2919eaaa00] frame= 221 QP=22.09 NAL=2 Slice:P Poc:448 I:1    P:35   SKIP:1164 size=95 bytes
[libx264 @ 0x5b2919eaaa00] frame= 222 QP=29.00 NAL=2 Slice:B Poc:444 I:0    P:30   SKIP:1170 size=58 bytes
[libx264 @ 0x5b2919eaaa00] frame= 223 QP=29.00 NAL=0 Slice:B Poc:442 I:0    P:17   SKIP:1183 size=41 bytes
[libx264 @ 0x5b2919eaaa00] frame= 224 QP=29.00 NAL=0 Slice:B Poc:446 I:0    P:11   SKIP:1189 size=34 bytes
[libx264 @ 0x5b2919eaaa00] frame= 225 QP=23.58 NAL=2 Slice:P Poc:452 I:0    P:9    SKIP:1191 size=49 bytes
[libx264 @ 0x5b2919eaaa00] frame= 226 QP=29.00 NAL=0 Slice:B Poc:450 I:0    P:11   SKIP:1189 size=35 bytes
[out#0/mp4 @ 0x5b2919ea9340] All streams finished
[out#0/mp4 @ 0x5b2919ea9340] Terminating muxer thread
[AVIOContext @ 0x5b2919ead140] Statistics: 59900 bytes written, 2 seeks, 4 writeouts
[out#0/mp4 @ 0x5b2919ea9340] Output file #0 (./../video/output_2024-08-09-13-50-40.mp4):
[out#0/mp4 @ 0x5b2919ea9340]   Output stream #0:0 (video): 227 frames encoded; 227 packets muxed (56313 bytes); 
[out#0/mp4 @ 0x5b2919ea9340]   Total: 227 packets (56313 bytes) muxed
[out#0/mp4 @ 0x5b2919ea9340] video:55kB audio:0kB subtitle:0kB other streams:0kB global headers:0kB muxing overhead: 6.362652%
frame=  227 fps= 18 q=-1.0 Lsize=      58kB time=00:00:07.46 bitrate=  64.2kbits/s speed=0.603x    
[libx264 @ 0x5b2919eaaa00] frame I:1     Avg QP:24.44  size:  9528
[libx264 @ 0x5b2919eaaa00] frame P:57    Avg QP:20.69  size:   556
[libx264 @ 0x5b2919eaaa00] frame B:169   Avg QP:24.84  size:    85
[libx264 @ 0x5b2919eaaa00] consecutive B-frames:  0.4%  0.9%  0.0% 98.7%
[libx264 @ 0x5b2919eaaa00] mb I  I16..4: 26.4% 55.8% 17.8%
[libx264 @ 0x5b2919eaaa00] mb P  I16..4:  0.4%  0.6%  0.3%  P16..4:  7.6%  0.7%  1.2%  0.0%  0.0%    skip:89.1%
[libx264 @ 0x5b2919eaaa00] mb B  I16..4:  0.0%  0.0%  0.0%  B16..8:  5.1%  0.0%  0.0%  direct: 0.0%  skip:94.9%  L0:23.8% L1:76.2% BI: 0.0%
[libx264 @ 0x5b2919eaaa00] 8x8 transform intra:52.4% inter:81.7%
[libx264 @ 0x5b2919eaaa00] coded y,uvDC,uvAC intra: 38.1% 29.6% 8.1% inter: 0.3% 1.0% 0.0%
[libx264 @ 0x5b2919eaaa00] i16 v,h,dc,p: 19% 12%  7% 62%
[libx264 @ 0x5b2919eaaa00] i8 v,h,dc,ddl,ddr,vr,hd,vl,hu: 27% 11% 26%  8%  6%  6%  3% 11%  4%
[libx264 @ 0x5b2919eaaa00] i4 v,h,dc,ddl,ddr,vr,hd,vl,hu: 22% 17% 21%  8%  4%  5%  3% 15%  3%
[libx264 @ 0x5b2919eaaa00] i8c dc,h,v,p: 71% 12% 15%  2%
[libx264 @ 0x5b2919eaaa00] Weighted P-Frames: Y:1.8% UV:1.8%
[libx264 @ 0x5b2919eaaa00] ref P L0: 84.6%  4.0%  9.4%  2.0%
[libx264 @ 0x5b2919eaaa00] ref B L0: 73.8% 24.6%  1.6%
[libx264 @ 0x5b2919eaaa00] ref B L1: 96.2%  3.8%
[libx264 @ 0x5b2919eaaa00] kb/s:58.81
[in#0/rawvideo @ 0x5b2919e973c0] Input file #0 (fd:):
[in#0/rawvideo @ 0x5b2919e973c0]   Input stream #0:0 (video): 228 packets read (210124800 bytes); 227 frames decoded; 0 decode errors; 
[in#0/rawvideo @ 0x5b2919e973c0]   Total: 228 packets (210124800 bytes) demuxed
[AVIOContext @ 0x5b2919ea7dc0] Statistics: 210124800 bytes read, 0 seeks
Exiting normally, received signal 2.
